<?xml version="1.0" encoding="utf-8"?>
<!-- Generator: Adobe Illustrator 23.0.3, SVG Export Plug-In . SVG Version: 6.00 Build 0)  -->
<svg version="1.1" id="Layer_1" xmlns="http://www.w3.org/2000/svg" xmlns:xlink="http://www.w3.org/1999/xlink" x="0px" y="0px"
	 viewBox="0 0 243.7 200" style="enable-background:new 0 0 243.7 200;" xml:space="preserve">
<g>
	<g>
		<path d="M168.4,110.5c1.5,1.8,2.3,3.9,2.3,6.5c0,2.1-0.6,4-1.7,5.7c-1.1,1.8-2.8,3.2-5.1,4.3c-2.3,1.1-5.1,1.6-8.5,1.6
			c-2.5,0-4.9-0.3-7.3-0.9c-2.4-0.6-4.5-1.4-6.3-2.5l3.6-7.4c1.4,0.9,2.9,1.6,4.6,2.1c1.7,0.5,3.4,0.7,5.1,0.7c1.7,0,3-0.3,4-0.9
			c1-0.6,1.5-1.5,1.5-2.7c0-2.3-1.8-3.4-5.3-3.4h-4.1v-6.2l6.2-6.7h-13.8V93H169v6.2l-7.2,7.8C164.7,107.6,166.9,108.8,168.4,110.5z
			"/>
		<path d="M175.8,93h16.5c3.8,0,7.2,0.7,10.2,2.1c3,1.4,5.3,3.5,6.9,6.1c1.6,2.6,2.4,5.7,2.4,9.2c0,3.5-0.8,6.6-2.4,9.2
			c-1.6,2.6-3.9,4.7-6.9,6.1c-3,1.4-6.4,2.1-10.2,2.1h-16.5V93z M191.9,120.1c3,0,5.4-0.8,7.2-2.5c1.8-1.7,2.7-4,2.7-7
			s-0.9-5.3-2.7-7c-1.8-1.7-4.2-2.5-7.2-2.5h-6.2v19.2H191.9z"/>
	</g>
	<g>
		<path d="M152.1,133.1c-1.4,2.7-3.6,3.7-6.5,3.2c-3.9-0.7-7.4-2.5-10.5-4.9c-4-3-7.8-6.1-11.6-9.4c-3.7-3.3-7.9-5.5-12.5-6.9
			c-10-2.9-20.1-2.8-30.1,0c-4.8,1.4-9.2,3.6-12.9,7c-4.3,3.8-8.5,7.7-13.5,10.6c-2.3,1.3-4.8,2.4-7.3,3.2c-3.9,1.1-6.6-0.6-8-4.4
			c-1.3-3.7-1.5-7.6-1.5-13.3c0.2-11.7,2.7-24.7,7.9-37.2c1.9-4.6,4.4-8.9,8.1-12.4c4.2-3.9,9.2-5.4,14.7-4.5
			c5.2,0.9,10.4,2,15.5,3.4c8.3,2.3,16.5,2.1,24.7-0.1c5.1-1.3,10.2-2.5,15.4-3.2c7.2-1.1,12.9,1.9,17.1,7.7
			c3.8,5.1,6.2,10.8,8,16.8h6.2c-2.2-7.5-5-14.8-9.9-21.1c-2.7-3.5-5.9-6.5-10.1-8.2c-4.7-1.9-9.6-1.9-14.4-0.9
			c-5.9,1.2-11.7,2.8-17.6,4c-2.9,0.6-6,1.1-8.9,0.9c-4.2-0.4-8.4-1.5-12.6-2.3c-5.3-1-10.5-2.4-15.9-3c-6-0.7-11.4,1.3-15.9,5.5
			c-4.5,4.2-7.7,9.3-10,14.9c-5.8,13.8-8.5,28.3-8.5,43.3c0,4.3,0.5,8.6,2.1,12.7c2.4,6,7.4,8.7,13.7,7.7c3.6-0.6,6.7-2.2,9.8-4.1
			c5-3,9.5-6.7,13.8-10.7c2.8-2.6,5.9-4.6,9.5-5.9c6.6-2.2,13.3-2.8,20.2-2.2c8.1,0.7,15.2,3.3,21.2,9.1c3.1,3,6.7,5.6,10.2,8.1
			c3.9,2.8,8.1,5,13,5.7c4.9,0.6,8.8-1,11.5-5.2c1-1.6,1.7-3.3,2.2-5h-6.3C152.5,132.2,152.3,132.7,152.1,133.1z"/>
		<path d="M76.5,82.5c-0.7-0.1-0.9-0.4-1.1-1.1c-0.9-4.3-4.2-7.1-8.6-7.5c-4.5-0.4-8.9,2.9-9.7,7.4c-0.1,0.8-0.5,1.1-1.3,1.2
			c-4.3,0.7-7.5,4.5-7.6,8.9c-0.1,4.4,3.1,8.4,7.3,9.2c0.9,0.2,1.5,0.4,1.5,1.5c0.1,0.8,0.5,1.6,0.8,2.3c1.9,3.4,5.7,5.3,9.5,4.8
			c4-0.6,7-3.5,7.8-7.4c0.1-0.7,0.4-0.9,1.1-1.1c1-0.2,2-0.6,2.9-1.1c3.4-1.9,5.2-5.8,4.5-9.6C83.2,86.2,80.3,83.2,76.5,82.5z
			 M75.4,94.9c-0.9,0.1-1.8,0-2.6,0.1c-1.9,0.1-3,1.3-3.1,3.2c0,0.7,0,1.4,0,2.1c-0.2,1.9-1.6,3.1-3.5,3.1c-1.9,0-3.2-1.4-3.2-3.3
			c0-0.7,0-1.4,0-2.1c-0.1-2-1.3-3.2-3.3-3.2c-0.7,0-1.4,0-2.1,0c-1.8-0.1-3.1-1.4-3.2-3.1c-0.1-1.8,1.1-3.2,3-3.4
			c0.7-0.1,1.5,0,2.3-0.1c2.2-0.1,3.4-1.3,3.4-3.5c0-0.7,0-1.4,0-2.1c0.1-1.7,1.4-2.9,3.1-3c1.7-0.1,3,0.9,3.4,2.5
			c0.2,0.8,0.2,1.7,0.2,2.5c0.1,2.4,1.2,3.6,3.6,3.6c0.6,0,1.3,0,1.9,0c1.8,0.1,3.1,1.4,3.1,3.3C78.3,93.3,77.2,94.6,75.4,94.9z"/>
		<path d="M124,85.8c3.1,0,5.5-2.5,5.5-5.6c0-3.1-2.5-5.5-5.6-5.5c-3.1,0-5.5,2.5-5.5,5.6C118.4,83.4,120.9,85.8,124,85.8z"/>
		<path d="M112.5,86c-3.1,0-5.6,2.5-5.6,5.6c0,3.1,2.5,5.6,5.6,5.6c3.1,0,5.6-2.5,5.6-5.6C118.1,88.5,115.6,86,112.5,86z"/>
		<path d="M135.3,86c-3.1,0-5.6,2.5-5.6,5.5c0,3.1,2.4,5.6,5.5,5.6c3.1,0,5.6-2.4,5.6-5.5C140.9,88.5,138.4,86,135.3,86z"/>
		<path d="M123.9,97.3c-3.1,0-5.6,2.5-5.6,5.6c0,3.1,2.5,5.6,5.6,5.6c3.1,0,5.6-2.5,5.6-5.6C129.5,99.8,127,97.3,123.9,97.3z"/>
	</g>
</g>
</svg>
