<?xml version="1.0" encoding="utf-8"?>
<!-- Generator: Adobe Illustrator 23.0.3, SVG Export Plug-In . SVG Version: 6.00 Build 0)  -->
<svg version="1.1" id="Layer_1" xmlns="http://www.w3.org/2000/svg" xmlns:xlink="http://www.w3.org/1999/xlink" x="0px" y="0px"
	 viewBox="0 0 243.7 200" style="enable-background:new 0 0 243.7 200;" xml:space="preserve">
<g>
	<g>
		<path d="M121.9,49.3c12.6,0,25.3,0,37.9,0c14,0,25,5.9,33.3,17.1c0.7,1,1.4,2,2.1,2.9c2.2,3,4.5,5.9,7.3,8.4
			c6,5.3,9,12.3,9.1,20.4c0.1,7.5,0.1,15,0,22.5c-0.2,16.3-13.5,29.7-29.8,30c-7,0.1-14,0.5-20.9-1.2c-12.6-3.2-22.6-10.1-29.8-21
			c-0.7-1.1-1.4-2.1-2.1-3.2c-3.7-5.6-11-5.7-14.6,0c-4.4,7-9.6,13.2-16.6,17.6c-7.7,4.9-16,7.6-25.1,7.7c-5.7,0-11.5,0.3-17-0.8
			c-13.8-2.6-23.8-15.1-23.9-29.2c-0.1-7.5-0.1-15,0-22.5c0.2-9.1,4-16.5,11.1-22.2c0.8-0.7,1.6-1.5,2.3-2.3
			c3.8-4.9,6.9-10.3,11.8-14.4c7.2-6.1,15.5-9.5,25-9.8c0.5,0,1,0,1.5,0C96.3,49.3,109.1,49.3,121.9,49.3z M121.8,75.7
			c-18.1,0-36.1,0-54.2,0c-2.9,0-5.8-0.1-8.7,0.1C47.3,76.5,37.9,86.4,37.7,98c-0.1,7.6-0.1,15.2,0,22.8c0.2,11.6,9,21.9,20.5,23.5
			c4.7,0.7,9.6,0.5,14.5,0.4c9-0.1,17-3.1,24.3-8.3c5.5-3.9,9.3-9.2,12.9-14.8c5.7-8.7,18.1-8.6,23.8,0c1.1,1.7,2.2,3.3,3.3,5
			c6.4,8.9,14.9,14.6,25.6,17.1c6,1.4,12.1,1.1,18.2,1c14.2,0,25-10.9,25.1-25c0-6.9,0-13.9,0-20.8c0-1.7-0.2-3.5-0.5-5.2
			c-2.4-10.9-11.6-18-23-18C162.2,75.7,142,75.7,121.8,75.7z M55,70.2c44.7,0,89.1,0,133.7,0c-0.4-0.5-0.7-1.1-1.1-1.6
			c-7.2-9-16.5-13.5-28-13.5c-25.1,0-50.3,0-75.4,0c-2.8,0-5.6,0.2-8.3,0.8C67.1,57.9,60.2,62.7,55,70.2z"/>
	</g>
	<g>
		<path d="M164.2,111.2h-8.9l-1.7,4.1h-6.1l9.3-21.1h5.9l9.4,21.1h-6.2L164.2,111.2z M162.4,106.8l-2.7-6.8l-2.7,6.8H162.4z"/>
		<path d="M183,109.7h-3.3v5.6h-6V94.2h9.7c1.9,0,3.6,0.3,5,1c1.4,0.6,2.5,1.5,3.3,2.7c0.8,1.2,1.1,2.6,1.1,4.2c0,1.5-0.4,2.9-1.1,4
			c-0.7,1.1-1.7,2-3.1,2.7l4.6,6.6h-6.4L183,109.7z M185.8,99.7c-0.6-0.5-1.6-0.8-2.8-0.8h-3.3v6.2h3.3c1.2,0,2.2-0.3,2.8-0.8
			c0.6-0.5,0.9-1.3,0.9-2.3C186.8,101,186.5,100.3,185.8,99.7z"/>
	</g>
</g>
</svg>
