<?xml version="1.0" encoding="utf-8"?>
<!-- Generator: Adobe Illustrator 23.0.3, SVG Export Plug-In . SVG Version: 6.00 Build 0)  -->
<svg version="1.1" id="Layer_1" xmlns="http://www.w3.org/2000/svg" xmlns:xlink="http://www.w3.org/1999/xlink" x="0px" y="0px"
	 viewBox="0 0 243.7 200" style="enable-background:new 0 0 243.7 200;" xml:space="preserve">
<g>
	<path d="M118.1,101c-12.5-7.3-24.9-14.6-37.4-22c-2-1.2-4-2.3-6.2-3.6c-0.1,1.3-0.3,2.3-0.3,3.3c0,14.1,0,28.3,0,42.4
		c0,4,1.7,6.9,5.1,8.9c12.4,7.3,24.9,14.7,37.4,22c0.8,0.5,1.6,0.8,2.6,1.2c0-0.6,0.1-0.9,0.1-1.2c0-16.4,0-32.8,0-49.2
		C119.3,101.9,118.8,101.5,118.1,101z"/>
	<path d="M85.8,165.1c-0.6-0.2-1.3-0.2-1.9-0.2c-7.8,0-15.5,0-23.3,0c-4.1,0-6.1-2-6.1-6c0-9.8,0-19.6,0-29.5c0-2.1-1-3.4-2.7-3.3
		c-1.6,0-2.5,1.2-2.5,3.3c0,5.1,0,10.1,0,15.2c0,5,0,9.9,0,14.9c0,6,4.3,10.5,10.4,10.6c8.3,0.1,16.6,0,24.9,0c0.3,0,0.7,0,1-0.1
		c1.3-0.3,2-1.1,2-2.4C87.6,166.3,87,165.4,85.8,165.1z"/>
	<path d="M49.3,71.3c0,1.6,1.2,2.7,2.6,2.7c1.4,0,2.4-1.1,2.5-2.7c0-0.4,0-0.9,0-1.3c0-9.5,0.1-19-0.1-28.5
		c-0.1-3.7,1.9-6.6,6.6-6.5c7.8,0.2,15.5,0.1,23.3,0c2.2,0,3.4-1,3.4-2.6c0-1.7-1.2-2.5-3.4-2.5c-8.1,0-16.2,0-24.3,0
		c-6.3,0-10.6,4.4-10.7,10.8c0,4.9,0,9.7,0,14.6c0,1.3,0,2.6,0,3.9C49.3,63.2,49.3,67.3,49.3,71.3z"/>
	<path d="M133,67.2h-2.6v4.8h2.6c0.9,0,1.7-0.2,2.1-0.6c0.5-0.4,0.7-1,0.7-1.8c0-0.8-0.2-1.3-0.7-1.8
		C134.6,67.4,133.9,67.2,133,67.2z"/>
	<path d="M157.9,35c0.6,0.2,1.3,0.2,1.9,0.2c7.8,0,15.5,0,23.3,0c4.1,0,6.1,2,6.1,6c0,9.8,0,19.6,0,29.5c0,2.1,1,3.4,2.6,3.3
		c1.6,0,2.5-1.2,2.5-3.3c0-5.1,0-10.1,0-15.2c0-4.7,0-9.5,0-14.2c0-7-4.2-11.3-11.3-11.3c-7.8,0-15.6,0-23.5,0c-0.5,0-1,0-1.5,0.1
		c-1.3,0.2-2,1-2.1,2.3C155.9,33.6,156.6,34.6,157.9,35z"/>
	<path d="M166.2,71.3c-0.5-0.4-0.9-0.6-1.3-0.9c-12.6-7.5-25.1-14.9-37.7-22.3c-3.6-2.2-7.2-2.1-10.9,0.1c-4.8,2.9-9.6,5.6-14.3,8.5
		c-8.1,4.8-16.1,9.6-24.5,14.5c0.7,0.4,1.1,0.7,1.6,1c13.8,8.1,27.5,16.2,41.2,24.3c1.1,0.7,1.9,0.6,3.1,0
		c13.9-8.1,27.7-16.2,41.6-24.3C165.4,71.9,165.8,71.6,166.2,71.3z M118.3,79.8l0-8.6l-4.2,7h-2l-4.2-6.8v8.4h-4.3V63.5h3.8l5.7,9.4
		l5.6-9.4h3.8l0,16.3H118.3z M135.9,79.8l-3-4.3h-2.5v4.3h-4.6V63.5h7.4c1.5,0,2.8,0.2,3.8,0.7c1.1,0.5,1.9,1.2,2.5,2.1
		c0.6,0.9,0.9,2,0.9,3.2c0,1.2-0.3,2.2-0.8,3.1c-0.6,0.9-1.3,1.6-2.4,2.1l3.5,5.1H135.9z"/>
	<path d="M169.5,121.5c0-14.2,0-28.5,0-42.7c0-1-0.1-1.9-0.2-3.1c-0.7,0.4-1.1,0.6-1.5,0.8c-14,8.2-28,16.4-42.1,24.5
		c-1,0.6-1.4,1.2-1.4,2.4c0,16,0,32.1,0,48.1c0,0.5,0,1,0,1.9c1.1-0.6,2.1-1,2.9-1.5c12.3-7,24.5-14,36.8-21
		C167.7,128.7,169.5,125.7,169.5,121.5z"/>
	<path d="M194.4,137.7c0-3,0-5.9,0-8.9c0-1.6-1.1-2.8-2.5-2.8c-1.5,0-2.6,1.1-2.7,2.9c0,0.4,0,0.8,0,1.1c0,9.5,0,19,0,28.5
		c0,4.6-1.8,6.4-6.4,6.4c-7.9,0-15.8,0-23.6,0c-2,0-3.2,1-3.2,2.6c0,1.6,1.1,2.5,3.1,2.5c8.2,0,16.4,0.1,24.6,0
		c6.3-0.1,10.6-4.5,10.6-10.8c0-4.9,0-9.8,0-14.7C194.4,142.3,194.4,140,194.4,137.7z"/>
</g>
</svg>
