<?xml version="1.0" encoding="utf-8"?>
<!-- Generator: Adobe Illustrator 23.0.3, SVG Export Plug-In . SVG Version: 6.00 Build 0)  -->
<svg version="1.1" id="Layer_1" xmlns="http://www.w3.org/2000/svg" xmlns:xlink="http://www.w3.org/1999/xlink" x="0px" y="0px"
	 viewBox="0 0 243.7 200" style="enable-background:new 0 0 243.7 200;" xml:space="preserve">
<g>
	<path d="M111,135.4c-0.9,0-1.5,0-2.1,0c-16.6,0-33.2,0-49.8,0c-7.8,0-12.6-4.8-12.6-12.7c0-26.9,0.1-53.8-0.1-80.6
		c0-7.3,5.4-12.7,12.7-12.7c41.8,0.1,83.7,0.1,125.5,0c7.3,0,12.7,5.4,12.7,12.7c-0.2,26.9-0.1,53.8-0.1,80.6
		c0,7.8-4.8,12.6-12.5,12.6c-16.7,0-33.3,0-50,0c-0.6,0-1.3,0-2.1,0c0,4.6,0,9.1,0.1,13.6c0,0.4,0.8,0.9,1.3,1.1
		c9.6,2.9,19.2,5.8,28.8,8.7c0.5,0.2,1.1,0.3,1.6,0.5c1.4,0.6,1.7,1.7,0.8,2.9c-2.1,2.6-4.4,5.2-6.6,7.7c-0.8,0.9-1.7,0.7-2.7,0.4
		c-7.6-2.3-15.2-4.6-22.9-6.8c-1.6-0.5-3.3-0.7-5-0.7c-4-0.1-8-0.2-12,0c-2.9,0.2-5.8,0.9-8.6,1.7c-6.6,1.8-13.1,3.8-19.6,5.8
		c-1.4,0.4-2.4,0.2-3.3-0.9c-1.8-2.3-3.8-4.5-5.7-6.7c-1.5-1.8-1.2-2.9,1.1-3.5c9.8-3,19.6-6,29.4-8.9c1.2-0.4,1.7-0.9,1.7-2.2
		C111,143.9,111,139.8,111,135.4z M121.8,131.9C121.8,131.9,121.8,131.9,121.8,131.9c3.1-0.1,6.1-0.1,9.2-0.1c17.9,0,35.8,0,53.8,0
		c5.8,0,9-3.2,9-9c0-27,0-54,0-81c0-5.8-3.3-9-9.1-9c-41.9,0-83.8,0-125.7,0c-5.9,0-9.1,3.3-9.1,9.1c0,26.9,0.1,53.9-0.1,80.8
		c0,5.6,3.9,9.2,9.2,9.1C80,131.8,100.9,131.9,121.8,131.9z M114.6,159.2c4.8,0,9.6,0,14.4,0c0-7.9,0-15.8,0-23.7
		c-4.9,0-9.6,0-14.4,0C114.6,143.5,114.6,151.2,114.6,159.2z M82.7,161.8c1.4,1.6,2.6,3.1,3.8,4.4c0.3,0.3,1,0.5,1.4,0.4
		c7.4-2.2,14.8-4.4,22.2-6.6c0.3-0.1,0.8-0.5,0.8-0.8c0.1-1.9,0-3.9,0-6C101.5,156.2,92.2,158.9,82.7,161.8z M132.6,153.2
		c0,2.1-0.1,3.9,0,5.6c0,0.4,0.6,1,1,1.2c7.4,2.2,14.7,4.4,22.1,6.6c0.4,0.1,1,0,1.3-0.3c1.3-1.4,2.6-2.9,3.9-4.6
		C151.5,158.9,142.2,156.1,132.6,153.2z"/>
	<path d="M121.9,37.7c20.9,0,41.7,0,62.6,0c3.5,0,4.5,1.1,4.5,4.5c0,26.8,0,53.6,0,80.5c0,3.4-1.1,4.6-4.5,4.6
		c-41.8,0-83.6,0-125.4,0c-3.4,0-4.5-1.1-4.5-4.5c0-26.8,0-53.6,0-80.5c0-3.4,1.1-4.5,4.5-4.5C80,37.7,101,37.7,121.9,37.7z
		 M185.4,123.6c0-27.6,0-55,0-82.4c-42.5,0-84.8,0-127.2,0c0,27.5,0,54.9,0,82.4C100.7,123.6,143,123.6,185.4,123.6z"/>
	<g>
		<g>
			<path d="M71,88.8c-2-1.9-3-4.7-3-8.2V67.3h6.8v13.1c0,3.8,1.5,5.7,4.5,5.7c3,0,4.5-1.9,4.5-5.7V67.3h6.7v13.3c0,3.6-1,6.3-3,8.2
				c-2,1.9-4.7,2.9-8.3,2.9S73,90.8,71,88.8z"/>
			<path d="M109.9,91.3l-5-7.4l-4.9,7.4h-7.7l8.7-12.1l-8.3-11.8h7.6l4.8,6.9l4.7-6.9h7.3l-8.3,11.6l8.9,12.4H109.9z"/>
		</g>
		<g>
			<path d="M142,88.8c-2-1.9-3-4.7-3-8.2V67.3h6.8v13.1c0,3.8,1.5,5.7,4.5,5.7c3,0,4.5-1.9,4.5-5.7V67.3h6.7v13.3c0,3.6-1,6.3-3,8.2
				c-2,1.9-4.7,2.9-8.3,2.9S144,90.8,142,88.8z"/>
			<path d="M166.2,67.3h6.8v23.9h-6.8V67.3z"/>
		</g>
		<rect x="125.4" y="62.5" width="2" height="33.8"/>
	</g>
</g>
</svg>
