<?xml version="1.0" encoding="utf-8"?>
<!-- Generator: Adobe Illustrator 23.0.3, SVG Export Plug-In . SVG Version: 6.00 Build 0)  -->
<svg version="1.1" id="Layer_1" xmlns="http://www.w3.org/2000/svg" xmlns:xlink="http://www.w3.org/1999/xlink" x="0px" y="0px"
	 viewBox="0 0 159 174.8" style="enable-background:new 0 0 159 174.8;" xml:space="preserve">
<style type="text/css">
	.st0{fill:#686868;}
	.st1{clip-path:url(#SVGID_2_);}
	.st2{clip-path:url(#SVGID_4_);}
	.st3{clip-path:url(#SVGID_6_);}
	.st4{clip-path:url(#SVGID_8_);}
	.st5{clip-path:url(#SVGID_10_);}
	.st6{enable-background:new    ;}
	.st7{clip-path:url(#SVGID_12_);}
	.st8{clip-path:url(#SVGID_16_);}
	.st9{clip-path:url(#SVGID_20_);}
	.st10{clip-path:url(#SVGID_22_);}
	.st11{clip-path:url(#SVGID_24_);}
	.st12{clip-path:url(#SVGID_26_);}
	.st13{clip-path:url(#SVGID_28_);}
	.st14{clip-path:url(#SVGID_30_);}
	.st15{clip-path:url(#SVGID_32_);}
	.st16{fill-rule:evenodd;clip-rule:evenodd;fill:#686868;}
</style>
<g>
	<g>
		<path class="st0" d="M21.5,33.6L79.7,0l58,33.6v30.4l-26.7-8.6v-6.3L79.7,31l-23,13.3l81,25.9v30.4l-58.1,33.6l-58.1-33.4V70.2
			l26.8,8.4V85l31.3,18.1l23.3-13.5L21.5,63.8L21.5,33.6z"/>
	</g>
	<g>
		<path class="st0" d="M37.1,174.4c0-6.1,0-12.2,0-18.4c1.4,0,2.8,0,4.2,0c2.1,0,4.3-0.1,6.4,0.2c3.1,0.5,4.7,3.1,3.9,5.9
			c-0.3,1.1-1.1,1.9-2.1,2.6c0.4,0.2,0.7,0.4,0.9,0.5c1.7,0.9,2.4,2.3,2.4,4.2c0,1.9-0.8,3.4-2.6,4.1c-1,0.4-2.1,0.8-3.2,0.8
			c-3.2,0.1-6.3,0.1-9.5,0.1C37.3,174.4,37.2,174.4,37.1,174.4z M41,170.7c2.1,0,4,0.1,6,0c1.1-0.1,1.7-0.8,1.7-1.8
			c0-1-0.5-1.8-1.6-1.9c-2-0.1-4,0-6.1,0C41,168.2,41,169.5,41,170.7z M41,163.3c1.6,0,3.2,0.1,4.8,0c1.2-0.1,1.8-0.8,1.8-1.8
			c0-1-0.5-1.7-1.7-1.8c-1.6-0.1-3.2,0-4.9,0C41,160.8,41,162,41,163.3z"/>
		<path class="st0" d="M109.9,163c0,3.8,0,7.5,0,11.3c-1.3,0-2.6,0-3.9,0c0-6.1,0-12.2,0-18.4c1.1,0,2.3,0,3.4,0
			c0.2,0,0.5,0.3,0.7,0.6c2.5,3.3,5,6.5,7.4,9.8c0.2,0.2,0.4,0.5,0.7,0.9c0-3.8,0-7.5,0-11.2c1.4,0,2.7,0,4,0c0,6.1,0,12.2,0,18.4
			c-1.1,0-2.1,0-3.2,0c-0.2,0-0.5-0.3-0.6-0.5c-2.6-3.4-5.1-6.7-7.7-10.1c-0.2-0.3-0.4-0.5-0.6-0.8C110,163,109.9,163,109.9,163z"/>
		<path class="st0" d="M145.1,156c4.6,0,9.2,0,13.8,0c0,1.2,0,2.3,0,3.6c-3.3,0-6.5,0-9.7,0c0,1.3,0,2.5,0,3.7c2.9,0,5.7,0,8.6,0
			c0,1.2,0,2.3,0,3.6c-2.8,0-5.7,0-8.6,0c0,1.4,0,2.6,0,3.9c3.3,0,6.6,0,9.9,0c0,1.2,0,2.3,0,3.5c-4.6,0-9.2,0-13.9,0
			C145.1,168.3,145.1,162.2,145.1,156z"/>
		<path class="st0" d="M21.4,156c0,0.5,0,1,0,1.5c0,2.9,0,5.7,0,8.6c0,0.7,0,1.4,0.2,2.1c0.5,1.9,1.8,2.9,3.9,2.8
			c2-0.1,3.3-1.1,3.7-3.1c0.1-0.6,0.1-1.3,0.2-1.9c0-3.3,0-6.6,0-10c1.4,0,2.6,0,4,0c0,0.5,0,1,0,1.5c0,3,0,6,0,8.9
			c0,0.8-0.1,1.7-0.2,2.5c-0.8,3.5-3.1,5.5-7,5.7c-1,0.1-2.1,0-3.1-0.2c-3.2-0.7-5.3-2.9-5.5-6.3c-0.2-4-0.1-8-0.1-12
			c0,0,0-0.1,0.1-0.2C18.7,156,20,156,21.4,156z"/>
		<path class="st0" d="M103.5,174.4c-1.4,0-2.6,0-3.8,0c-0.2,0-0.5-0.3-0.6-0.5c-0.4-1-0.8-2-1.3-3c-0.1-0.3-0.5-0.5-0.8-0.6
			c-2.2,0-4.4,0-6.6,0c-0.3,0-0.7,0.3-0.8,0.5c-0.5,1-0.8,2-1.3,3c-0.1,0.2-0.4,0.5-0.5,0.5c-1.2,0.1-2.4,0-3.8,0
			c0.1-0.4,0.2-0.6,0.3-0.8c2.4-5.7,4.8-11.4,7.2-17.1c0.2-0.6,0.5-0.7,1.1-0.7c1,0.1,2.2-0.3,2.9,0.2c0.7,0.4,0.8,1.7,1.2,2.6
			c2.1,5,4.2,9.9,6.3,14.9C103.2,173.7,103.3,174,103.5,174.4z M91.3,166.6c1.7,0,3.2,0,4.8,0c-0.8-2-1.6-3.9-2.4-5.9
			C92.9,162.8,92.1,164.7,91.3,166.6z"/>
		<path class="st0" d="M12,161.1c-1.4-0.9-2.8-1.7-4.5-1.8c-0.3,0-0.5,0-0.8,0c-1,0.1-1.7,0.6-1.9,1.4c-0.1,0.8,0.3,1.4,1.3,1.8
			c1.2,0.4,2.3,0.7,3.5,1.1c0.7,0.2,1.4,0.5,2,0.8c2,0.9,3,2.4,2.9,4.7c-0.1,2.2-1,3.9-3,4.8c-3.5,1.5-6.8,0.9-10-1
			c-0.6-0.3-1-0.7-1.6-1.2c0.8-1,1.6-1.9,2.2-2.7c1.5,0.7,2.9,1.4,4.3,1.8c0.8,0.2,1.8,0.1,2.8-0.1c0.7-0.1,1.2-0.6,1.2-1.4
			c0.1-0.8-0.3-1.3-1-1.6c-1.2-0.4-2.4-0.8-3.6-1.2c-0.7-0.2-1.4-0.4-2.1-0.7c-2-0.8-3.1-2.3-3.2-4.5c0-2.2,0.8-4,2.9-5
			c2.7-1.3,5.4-1,8.1,0.1c0.8,0.3,1.6,0.9,2.4,1.4C13.4,159.1,12.7,160,12,161.1z"/>
		<path class="st0" d="M68.3,158c-0.8,1.1-1.5,2.1-2,3c-1.3-0.5-2.5-1.1-3.7-1.5c-0.7-0.2-1.6-0.1-2.4,0c-0.6,0.1-1.1,0.6-1.1,1.3
			c-0.1,0.7,0.2,1.3,0.9,1.5c1,0.4,2,0.7,3,1c1,0.3,2,0.6,3,1c2,0.9,3,2.4,3,4.6c0,2.2-1,4-3.1,4.9c-2.8,1.2-5.5,1-8.3-0.1
			c-1.2-0.5-2.2-1.2-3.4-1.9c0.9-1.1,1.7-2,2.5-3c0.4,0.3,0.8,0.6,1.2,0.8c1.4,1,3,1.5,4.8,1.4c0.5,0,1-0.2,1.4-0.4
			c1.1-0.6,1.1-2,0-2.6c-0.8-0.4-1.7-0.7-2.6-1c-1.1-0.4-2.2-0.7-3.3-1.1c-1.9-0.7-3-2.1-3.1-4.2c-0.1-2.3,0.7-4.2,2.8-5.2
			c2.7-1.4,5.4-1,8.1,0.1C66.7,157,67.4,157.5,68.3,158z"/>
		<path class="st0" d="M139.6,169c0.9,0.9,1.8,1.7,2.6,2.5c-3.2,4-9.9,4.4-13.9,0.8c-4-3.6-4-10.4-0.1-14.1
			c3.7-3.5,10.8-3.4,13.9,0.4c-0.8,1-1.7,1.9-2.5,2.9c-3.8-2.6-6.6-2.6-8.7-0.3c-1.9,2.2-1.9,5.9,0,8.1c1.2,1.3,2.6,1.9,4.4,1.8
			C137.1,170.9,138.5,170,139.6,169z"/>
		<path class="st0" d="M85.3,159.7c-1.8,0-3.6,0-5.5,0c0,4.9,0,9.8,0,14.7c-1.4,0-2.7,0-4.1,0c0-4.9,0-9.7,0-14.7
			c-1.9,0-3.7,0-5.6,0c0-1.3,0-2.4,0-3.7c5,0,10.1,0,15.2,0C85.3,157.2,85.3,158.4,85.3,159.7z"/>
	</g>
</g>
</svg>
