<?xml version="1.0" encoding="utf-8"?>
<!-- Generator: Adobe Illustrator 23.0.3, SVG Export Plug-In . SVG Version: 6.00 Build 0)  -->
<svg version="1.1" id="Layer_1" xmlns="http://www.w3.org/2000/svg" xmlns:xlink="http://www.w3.org/1999/xlink" x="0px" y="0px"
	 viewBox="0 0 225.8 159.7" style="enable-background:new 0 0 225.8 159.7;" xml:space="preserve">
<style type="text/css">
	.st0{fill:#686868;}
	.st1{clip-path:url(#SVGID_2_);}
	.st2{clip-path:url(#SVGID_4_);}
	.st3{clip-path:url(#SVGID_6_);}
	.st4{clip-path:url(#SVGID_8_);}
	.st5{clip-path:url(#SVGID_10_);}
	.st6{enable-background:new    ;}
	.st7{clip-path:url(#SVGID_12_);}
	.st8{clip-path:url(#SVGID_16_);}
	.st9{clip-path:url(#SVGID_20_);}
	.st10{clip-path:url(#SVGID_22_);}
	.st11{clip-path:url(#SVGID_24_);}
	.st12{clip-path:url(#SVGID_26_);}
	.st13{clip-path:url(#SVGID_28_);}
	.st14{clip-path:url(#SVGID_30_);}
	.st15{clip-path:url(#SVGID_32_);}
	.st16{fill-rule:evenodd;clip-rule:evenodd;fill:#686868;}
</style>
<g>
	<g>
		<path class="st0" d="M0.8,159.2c-0.5,0-0.8-0.4-0.8-0.8v-5.1c0-0.5,0.3-1.1,0.6-1.4l27-22.8c0.3-0.3,0.3-0.5-0.2-0.5H4
			c-0.5,0-0.8-0.4-0.8-0.8v-4.6c0-0.4,0.4-0.8,0.8-0.8h37.7c0.5,0,0.8,0.4,0.8,0.8v4.1c0,0.5-0.3,1.1-0.6,1.3l-28.2,23.8
			c-0.3,0.3-0.3,0.5,0.2,0.5h28.9c0.4,0,0.8,0.4,0.8,0.8v4.6c0,0.4-0.4,0.8-0.8,0.8H0.8z"/>
		<path class="st0" d="M46.6,123.2c0-0.5,0.4-0.8,0.8-0.8h19.8c0.5,0,1.2,0,1.6,0c0,0,6.6,0.1,8.7,0.4c2.1,0.2,4,0.7,5.6,1.5
			c1.7,0.8,3,1.8,4.1,3.1c1.1,1.3,1.7,2.7,1.7,4.3c0,1.7-0.7,3.3-2,4.7c-1.4,1.4-3.2,2.5-5.5,3.2c3.3,0.7,5.8,1.8,7.5,3.3
			c1.8,1.6,2.6,3.4,2.6,5.5c0,1.7-0.6,3.3-1.7,4.9c-1.1,1.6-2.7,2.8-4.7,3.8c-2,0.9-4.4,1.5-7.3,1.7c-1.8,0.1-6.2,0.2-13.1,0.3H47.4
			c-0.5,0-0.8-0.4-0.8-0.8L46.6,123.2L46.6,123.2z M58.3,128.5c-0.4,0-0.8,0.4-0.8,0.8v6.9c0,0.5,0.4,0.8,0.8,0.8h5.5
			c0.4,0,1.2,0,1.6,0c0,0,6,0,7.1-0.1c1.9-0.2,3.3-0.6,4.4-1.3c1.1-0.7,1.6-1.7,1.6-2.9c0-1.1-0.5-2.1-1.4-2.8
			c-0.9-0.7-2.3-1.1-4.1-1.3c-1.1-0.1-4.2-0.1-9.3-0.1L58.3,128.5L58.3,128.5z M58.3,143.2c-0.4,0-0.8,0.4-0.8,0.8v8.2
			c0,0.4,0.4,0.8,0.8,0.8h8.4c0.5,0,1.2,0,1.6,0c0,0,5.6-0.1,6.6-0.2c1.6-0.2,2.9-0.7,3.9-1.5c1-0.8,1.5-1.8,1.5-3.1
			c0-1.1-0.4-2-1.2-2.8c-0.8-0.8-1.9-1.3-3.4-1.7c-1.5-0.4-4.7-0.5-9.6-0.5H58.3L58.3,143.2z"/>
		<path class="st0" d="M93.6,159.2c-0.4,0-0.8-0.4-0.8-0.8v-25.9c0-0.5,0.4-0.8,0.8-0.8h15.5c0.5,0,1.2,0,1.6,0c0,0,6.6,0.2,8.6,0.7
			c2,0.5,3.5,1.4,4.7,2.6c1.2,1.3,1.8,2.7,1.8,4.3c0,2.1-0.9,3.8-2.7,5.1c-1.8,1.3-4.4,2.2-8,2.5c1.8,0.7,3.2,1.5,4.4,2.3
			c1.1,0.8,2.7,2.3,4.6,4.5l4.4,4.8c0.3,0.3,0.2,0.6-0.3,0.6h-8.1c-0.5,0-1.1-0.3-1.4-0.6l-4.7-4.8c-0.3-0.3-0.8-0.8-1.2-1.2
			c0,0-2.9-2.9-3.7-3.5c-0.8-0.6-1.6-0.9-2.4-1.1c-0.9-0.2-2.2-0.3-4.1-0.3h-0.8c-0.4,0-0.8,0.4-0.8,0.8v9.9c0,0.5-0.4,0.8-0.8,0.8
			L93.6,159.2L93.6,159.2z M100.9,142.5c0,0.5,0.4,0.8,0.8,0.8h4.4c0.5,0,1.2,0,1.6,0c0,0,5.5-0.1,6.5-0.3c1-0.2,1.7-0.6,2.3-1.2
			c0.6-0.6,0.8-1.2,0.8-2.1c0-0.9-0.4-1.7-1.1-2.2c-0.7-0.6-1.7-0.9-3.1-1.1c-0.7-0.1-2.6-0.1-5.9-0.1h-5.5c-0.4,0-0.8,0.4-0.8,0.8
			L100.9,142.5L100.9,142.5z"/>
		<path class="st0" d="M127.1,132.4c0-0.5,0.4-0.8,0.8-0.8h6.5c0.5,0,0.8,0.4,0.8,0.8v13.3c0,0.5,0,1.2,0,1.6c0,0,0.1,3.1,0.3,3.8
			c0.3,1.1,1.2,2,2.5,2.7c1.3,0.7,3.1,1,5.4,1c2.3,0,4.1-0.3,5.2-1c1.2-0.6,1.9-1.4,2.1-2.4c0.2-0.9,0.4-2.5,0.4-4.7v-14.4
			c0-0.5,0.4-0.8,0.8-0.8h6.5c0.5,0,0.8,0.4,0.8,0.8v12.8c0,0.5,0,1.2,0,1.6c0,0-0.2,4.8-0.6,6.2c-0.4,1.4-1.3,2.5-2.4,3.5
			c-1.2,0.9-2.8,1.7-4.7,2.2c-2,0.6-4.6,0.8-7.7,0.8c-3.8,0-6.8-0.3-8.8-0.9c-2-0.6-3.6-1.4-4.7-2.4c-1.2-1-1.9-2-2.3-3.1
			c-0.5-1.6-0.8-3.9-0.8-7L127.1,132.4L127.1,132.4z"/>
		<path class="st0" d="M159.7,150.2l7.1-0.5c0.5,0,1,0.3,1.2,0.7c0,0,1.1,2.4,2.6,3.3c1.5,0.9,3.4,1.3,5.9,1.3
			c2.6,0,4.6-0.4,5.9-1.1c1.3-0.8,2-1.6,2-2.7c0-0.7-0.3-1.2-0.8-1.7c-0.6-0.5-1.5-0.9-2.9-1.2c-1-0.2-3.1-0.6-6.5-1.2
			c-4.4-0.7-7.4-1.6-9.2-2.7c-2.5-1.5-3.7-3.4-3.7-5.6c0-1.4,0.6-2.7,1.7-3.9c1.2-1.2,2.8-2.2,5-2.8c2.2-0.6,4.8-1,7.9-1
			c5.1,0,8.9,0.8,11.4,2.3c2.6,1.5,3.9,3.5,4,6.1l-7.3,0.2c-0.5,0-1-0.3-1.2-0.7c0,0-0.8-1.7-1.9-2.3c-1.1-0.6-2.9-0.9-5.2-0.9
			c-2.4,0-4.2,0.3-5.6,1c-0.9,0.4-1.3,1-1.3,1.7c0,0.7,0.4,1.2,1.2,1.7c1,0.6,3.5,1.2,7.5,1.8c4,0.6,6.9,1.3,8.8,2
			c1.9,0.7,3.4,1.6,4.5,2.8c1.1,1.2,1.6,2.6,1.6,4.4c0,1.6-0.6,3.1-1.9,4.4c-1.3,1.4-3.1,2.4-5.4,3.1c-2.3,0.7-5.3,1-8.8,1
			c-5.1,0-9-0.8-11.7-2.4C161.8,155.7,160.2,153.3,159.7,150.2"/>
		<path class="st0" d="M194.4,159.2c-0.5,0-0.8-0.4-0.8-0.8v-25.9c0-0.5,0.4-0.8,0.8-0.8h6.5c0.5,0,0.8,0.4,0.8,0.8v9.2
			c0,0.5,0.4,0.8,0.8,0.8h14.3c0.4,0,0.8-0.4,0.8-0.8v-9.2c0-0.5,0.4-0.8,0.8-0.8h6.5c0.5,0,0.8,0.4,0.8,0.8v25.9
			c0,0.4-0.4,0.8-0.8,0.8h-6.5c-0.5,0-0.8-0.4-0.8-0.8V148c0-0.5-0.4-0.8-0.8-0.8h-14.3c-0.5,0-0.8,0.4-0.8,0.8v10.4
			c0,0.4-0.4,0.8-0.8,0.8H194.4z"/>
	</g>
	<g>
		<path class="st16" d="M122.4,0c5.1-0.3,8.8,5.2,10.3,8.9c0.9,2.1,1.6,5.5-0.5,6.6c-1.7,0.8-3.6,0.9-6,1.2c-5.6,0.7-9.1-0.6-11.1-4
			c-0.6-1-1.2-2.7-0.8-4.4c0.7-3.3,2.8-6,5.4-7.5C120.1,0.6,121.3,0.1,122.4,0"/>
		<path class="st0" d="M106.8,20.1c3,0,6.1,0.5,9,1.3c3.2,0.8,6.2,2,8.7,3c4.8,1.9,8.3,3.3,8.3,3.3s2.4-1.7,3.4-2.3
			c2.2-1.4,4.3-2.8,7.1-3.4c0.9-0.2,2.6-0.2,3.4-0.1c3.3,0.6,5.3,2,5.5,4.8c0.4,3.7-4.4,7.7-5.5,8.7c-1,0.9-5.8,5.5-11.7,5.9
			c-2.9,0.2-5.6-0.7-7.5-1.5c-0.7-0.3-2.4-1.1-2.4-1.1s-2.6,2.5-5,5c-2.4,2.5-8.4,9.9-8.4,9.9c6.6-0.5,14.2,1.6,19,3.5
			c11.3,4.4,22.3,12.1,29.7,22.5c2.5,3.6,5,7.5,6.8,11.8c0.5,1.2,1.5,3.6,0.6,4.7c-0.9,1.1-3-0.2-4.2-0.8c-2.2-1-6.8-4.6-10.1-7.2
			c-1.5-1.2-3.9-3.3-4.3-5.2c-0.3-1.2,0.5-2.8,0.7-4c0.4-2-0.7-3.5-1.5-4.4c-1.9-2.3-5-3.8-8-4.9c-5.9-2.3-10.1-3.1-20.1-4.3
			c-10-1.3-16.8-0.5-17.5-0.4c-0.8,0.9-1.8,2.1-2.5,3C98,70,90,77.9,87.7,79.6c-4.1,3.1-8.7,6.1-13.6,8.5c-9.4,4.5-15.3,3.8-16,3.1
			c-0.7-0.7-0.7-2.9,0.7-5.8c1.4-2.9,4.9-6.8,6.4-8.4c1.6-1.6,4.5-4.3,8.5-7.3c5.5-4.2,13.9-8.4,18-10.4c5.8-2.9,11.6-4.2,13.1-4.6
			c8-11,16.4-17.9,16.4-17.9s-3.4-2.2-4.8-3.1c-3.1-2.1-6.2-4.3-9.8-5.9c-2.3-1-6-2.4-9.2-1.6c-4,1-9.2,4-11.3,6.6
			c-0.7,0.9-1.3,2.4-1.5,3.8c-0.2,1.1,0.1,2.6-0.2,3.3c-0.5,1.3-2.7,2.5-4.3,3.2c-2.3,1-4.6,2-7.2,2.7c-0.9,0.2-2.4,0.6-2.9,0
			c-0.6-0.9,0.4-2.2,0.7-2.8c1.4-2.4,3-4.5,4.7-6.5c5.3-6.3,11-11,19.1-14.2C96.5,21.5,100.4,20.1,106.8,20.1 M146.2,25.6
			c-1.4,0.1-2.9,0.4-4.1,0.9c-1.8,0.7-3.5,1.6-5.1,2.6c3.7,1.1,8,1.8,11.3-0.3c0.8-0.5,1.5-1.2,1.6-2
			C149.8,25.9,147.5,25.5,146.2,25.6 M96,65.6c0,0-1.9,0.3-2.9,0.5c-1,0.2-3.3,0.9-4.8,1.3c-4.2,1.1-15.3,5.4-20.2,10.3
			c-1.6,1.6-2.9,3.6-3.8,5.9c-0.3,0.6-0.8,2.1-0.3,3c0.4,0.7,1.8,0.9,2.9,0.7c2.4-0.5,4.5-1.5,6.4-2.5c7.1-3.9,13.9-9.6,18.1-14.2
			c1.4-1.5,3.1-3.3,3.6-3.9C95.5,66.2,96,65.6,96,65.6"/>
	</g>
</g>
</svg>
