<?xml version="1.0" encoding="utf-8"?>
<!-- Generator: Adobe Illustrator 23.0.3, SVG Export Plug-In . SVG Version: 6.00 Build 0)  -->
<svg version="1.1" id="Layer_1" xmlns="http://www.w3.org/2000/svg" xmlns:xlink="http://www.w3.org/1999/xlink" x="0px" y="0px"
	 viewBox="0 0 216.9 175.9" style="enable-background:new 0 0 216.9 175.9;" xml:space="preserve">
<style type="text/css">
	.st0{fill:#686868;}
	.st1{clip-path:url(#SVGID_2_);}
	.st2{clip-path:url(#SVGID_4_);}
	.st3{clip-path:url(#SVGID_6_);}
	.st4{clip-path:url(#SVGID_8_);}
	.st5{clip-path:url(#SVGID_10_);}
	.st6{enable-background:new    ;}
	.st7{clip-path:url(#SVGID_12_);}
	.st8{clip-path:url(#SVGID_16_);}
	.st9{clip-path:url(#SVGID_20_);}
	.st10{clip-path:url(#SVGID_22_);}
	.st11{clip-path:url(#SVGID_24_);}
	.st12{clip-path:url(#SVGID_26_);}
	.st13{clip-path:url(#SVGID_28_);}
	.st14{clip-path:url(#SVGID_30_);}
	.st15{clip-path:url(#SVGID_32_);}
	.st16{fill-rule:evenodd;clip-rule:evenodd;fill:#686868;}
</style>
<g>
	<g>
		<path class="st0" d="M192.8,59.4V65c-0.1,0.3-0.1,0.6-0.2,0.9c-0.3,2.4-0.5,4.8-0.9,7.2c-1.3,7.8-4.1,15-8.3,21.7
			c-6.3,10.2-14.9,17.9-25.6,23.2c-6.2,3.1-12.9,5-19.8,5.8c-1.5,0.2-3.1,0.3-4.6,0.5H74.3c-0.3-0.1-0.6-0.1-0.9-0.2
			c-6-0.4-11.7-1.7-17.2-4.1c-11.9-5.2-20.8-13.7-26.6-25.3c-2.6-5.1-4.2-10.7-4.9-16.4c-0.2-1.4-0.3-2.8-0.5-4.2v-5.4
			c0.1-0.3,0.1-0.6,0.2-0.9c0.3-5.2,1.4-10.2,3.2-15c5-13,13.8-22.6,26.3-28.9c6.5-3.2,13.4-4.9,20.6-5.3c3.5-0.2,7.1,0,10.6,0.5
			c0.3,0,0.8-0.1,1-0.3c5-5.2,10.8-9.3,17.3-12.5c6.3-3.1,12.9-5.1,19.9-5.9c1.6-0.2,3.3-0.3,4.9-0.5h5.1c0.3,0.1,0.7,0.1,1,0.1
			c2.5,0.3,5,0.5,7.5,0.9c7.7,1.3,14.9,4.1,21.6,8.2c10.2,6.3,18,14.9,23.3,25.7c3.1,6.2,5.1,12.9,5.8,19.8
			C192.5,56.3,192.6,57.9,192.8,59.4 M98.5,23.5c0.1,0.1,0.1,0.2,0.2,0.2c3.5,1.7,6.8,3.7,9.9,6c0.2,0.1,0.7,0.1,0.9-0.1
			c8.6-5.4,17.9-7.3,27.9-5.5c9.8,1.7,17.8,6.6,23.9,14.5c6.9,8.9,9.5,18.9,7.6,30c-1.3,7.5-4.3,14.2-9.4,19.8
			c-9.3,10.2-20.9,14.5-34.6,12.7c-8.4-1.1-15.7-4.7-21.7-10.8c-7.7-7.8-15.5-15.5-23.2-23.3c-1-1-2.2-1.9-3.7-2.1
			c-2.6-0.3-4.9,1-6.1,3.3c-1,2.1-0.9,4.4,1.3,6.6c8.6,8.5,17.2,17,25.8,25.5c1.5,1.5,3.1,2.8,4.7,4c6.3,4.6,13.4,7.1,21.1,8.1
			c6,0.8,12,0.6,18-0.7c11.3-2.5,20.7-8.3,28.1-17.3c6.1-7.4,9.8-15.8,11.1-25.4c0.7-5.4,0.6-10.9-0.5-16.3
			c-1.7-8.8-5.4-16.7-11.4-23.3c-11.4-12.8-25.7-18.5-42.7-17.2c-6.5,0.5-12.7,2.4-18.6,5.5C104.1,19.3,101.2,21.2,98.5,23.5
			 M94.3,112.6c-0.2-0.2-0.5-0.4-0.7-0.7c-3.5-3.3-7.1-6.6-10.6-10c-0.7-0.7-1.3-1-2.3-0.9c-3.5,0.1-7.1,0.1-10.5-0.7
			C53,96.4,42.9,77.6,49.3,61c5-13,18.9-21,32.7-18.5c6.2,1.1,11.6,3.7,16,8.3c5.4,5.6,11,11,16.4,16.5c1.2,1.3,2.7,1.8,4.4,1.6
			c2.2-0.3,4-1.4,4.8-3.6c0.8-2.1,0.4-4.2-1.2-5.8c-5.7-5.8-11.3-11.8-17.3-17.3c-11.6-10.8-25.2-14-40.3-9.4
			c-20.3,6.2-32.2,27.1-27.5,47.8c4.2,18.8,20.7,32.1,40,32.1c5.4,0,10.8,0,16.2,0C93.6,112.6,93.9,112.6,94.3,112.6"/>
	</g>
	<g>
		<g>
			<path class="st0" d="M64.2,150.9c0,1.3,0,2.5,0,3.7c0,1.2,0,2.3,0,3.4c1.6,0,3.1-0.2,4.5,0c3.1,0.4,5.4,2.2,6.3,5.2
				c1,3.3,0.6,6.5-1.8,9.2c-2.8,3.1-6.5,3.7-10.5,3.2c-3.4-0.4-3.4-0.5-3.4-3.8c0-6.5,0-13,0-19.6c0-1.1,0.3-1.6,1.5-1.5
				C61.8,151,62.9,150.9,64.2,150.9z M64.2,162.5c0,1.5,0,3,0,4.5c0,1.5,0,3.1,0,4.6c2.5,0.5,4.5-0.2,5.5-2c1.1-1.8,1-4.6-0.3-6.1
				C68.3,162.1,66.3,161.7,64.2,162.5z"/>
			<path class="st0" d="M32.6,157.6c0-1.7,0-3.6,0-5.5c0-0.9,0.3-1.2,1.2-1.2c1.2,0.1,2.3,0,3.6,0c0,0.5,0.1,0.8,0.1,1.2
				c0,7.2,0,14.3,0,21.5c0,0.4-0.3,0.9-0.7,1c-3,1.2-6.2,1.6-9.4,0.8c-3.6-0.9-5.7-3.7-6-7.5c-0.3-4,1.6-7.5,5.1-8.9
				C28.3,158.3,30.4,158.1,32.6,157.6z M32.6,162.1c-0.8,0-1.3,0-1.9,0c-2.9,0.2-4.6,2.5-4.2,5.5c0.3,2.9,2.4,4.5,5.2,4
				c0.3-0.1,0.8-0.5,0.8-0.8C32.6,168,32.6,165.1,32.6,162.1z"/>
			<path class="st0" d="M21.3,175.6c-1.6,0-3,0.1-4.4,0c-0.4,0-0.8-0.5-1-0.9c-0.6-1.4-1.1-2.9-1.6-4.4c-2.4,0-4.8,0-7.2,0
				c-0.3,0-0.8,0.4-0.9,0.8c-0.5,1.2-0.8,2.5-1.2,3.7c-0.1,0.4-0.5,0.9-0.8,0.9c-1.3,0.1-2.6,0-4.2,0c0.2-0.6,0.2-1,0.4-1.4
				c2.1-6.1,4.2-12.2,6.3-18.2c0.1-0.4,0.3-0.7,0.4-1.1c0.5-2,0.5-2,2.6-2c3.6,0,3.6,0,4.8,3.3c2.1,5.9,4.2,11.9,6.3,17.8
				C21,174.4,21.1,174.9,21.3,175.6z M13,165.7c-0.9-2.9-1.8-5.6-2.7-8.5c-0.9,3-1.7,5.7-2.6,8.5C9.6,165.7,11.2,165.7,13,165.7z"/>
			<path class="st0" d="M48.4,175.9c-5.2,0-8.6-3.6-8.6-9c0-5.2,3.6-8.9,8.7-8.9c5.1,0,8.4,3.6,8.4,8.9
				C56.9,172.3,53.5,175.9,48.4,175.9z M44.5,167c0.4,1.2,0.6,2.4,1.2,3.4c1.3,2,4.2,2,5.4-0.1c1.2-2.2,1.2-4.5,0-6.7
				c-1.2-2.1-4.3-2.1-5.5,0C45.1,164.6,44.9,165.8,44.5,167z"/>
			<path class="st0" d="M82,168.2c0.5,3.4,3.3,4.2,9.2,2.8c0,1.1,0.1,2.2,0,3.3c0,0.3-0.5,0.7-0.8,0.8c-2.9,1-5.9,1.1-8.7,0
				c-2.9-1.1-4.2-3.5-4.6-6.4c-0.3-2.3,0-4.6,1.1-6.6c1.9-3.5,6.2-5.1,10.1-3.6c3.2,1.2,5.2,5.1,4.3,8.9c-0.1,0.3-0.7,0.7-1.1,0.7
				c-2.7,0.1-5.4,0.1-8,0.1C82.9,168.2,82.5,168.2,82,168.2z M88,164.7c-0.1-1.8-1.1-2.8-2.7-2.8c-1.8,0-3,1-3.2,2.8
				C84,164.7,86,164.7,88,164.7z"/>
		</g>
		<g>
			<g>
				<path class="st0" d="M119.1,171.2c0,1.1,0.1,2.2,0,3.3c0,0.4-0.6,0.9-1,1c-3.6,0.7-7.2,0.7-10.5-1c-4.2-2.2-5.7-6-5.6-10.5
					c0.2-6.6,4.7-11.2,11.3-11.4c1.6-0.1,3.2,0.1,4.8,0.3c0.8,0.1,1.2,0.5,1.2,1.4c-0.1,1.1,0,2.2,0,3.1c-2-0.1-4-0.5-5.9-0.3
					c-4,0.2-6.4,3.1-6.3,7.4c0,4,2.6,6.9,6.5,7.1C115.3,171.5,117.1,171.3,119.1,171.2z"/>
				<path class="st0" d="M137.5,168.2c0.3,3.3,3.1,4.1,9.3,2.8c0,1.1,0.1,2.2,0,3.3c0,0.3-0.5,0.7-0.9,0.8c-3,1-6,1.2-9-0.1
					c-3.1-1.4-4.2-4-4.5-7.2c-0.5-4.7,2.4-8.9,6.7-9.7c6.1-1.1,9.7,3.2,8.9,9.1c0,0.4-0.7,0.9-1.1,0.9c-2.6,0.1-5.2,0.1-7.8,0.1
					C138.6,168.2,138.1,168.2,137.5,168.2z M143.4,164.7c-0.2-2-1.3-2.9-3.1-2.8c-1.7,0.1-2.8,1.2-2.8,2.8
					C139.5,164.7,141.4,164.7,143.4,164.7z"/>
				<path class="st0" d="M206.3,168.2c0.1,3.3,3.6,4.3,9.2,2.7c0,1.2,0,2.3,0,3.5c0,0.2-0.3,0.5-0.6,0.6c-2.6,1.2-8.7,1.6-11.5-1.6
					c-2.5-2.7-3-7.9-1-11.4c1.8-3.2,5.4-4.7,9.2-3.8c3,0.7,5.2,3.3,5.2,6.7c0.1,3.7,0.2,3.2-3.1,3.3
					C211.3,168.3,208.8,168.2,206.3,168.2z M212.2,164.7c-0.1-1.9-1.1-2.9-2.9-2.8c-1.7,0-2.9,1.1-3,2.8
					C208.3,164.7,210.2,164.7,212.2,164.7z"/>
				<path class="st0" d="M159.1,164.2c-0.1-1.1-0.8-1.8-1.8-1.8c-1.7,0-3.3,0.2-5,0.3c-0.4,0-0.7,0.2-1.3,0.4c0-1.3-0.1-2.5,0-3.7
					c0-0.3,0.6-0.6,0.9-0.8c2.4-0.8,4.8-1.1,7.3-0.5c2.8,0.7,4.6,3.1,4.7,6.4c0.1,3,0.1,6,0,8.9c0,0.3-0.3,0.8-0.6,0.9
					c-3,1.2-6.1,1.8-9.4,1.1c-2.9-0.6-4.6-2.6-4.6-5.4c0-2.6,1.5-4.6,4.3-5.2C155.3,164.5,157.1,164.5,159.1,164.2z M159.1,170
					c0-2,0-2-1.7-2c-2.2,0-3.4,0.7-3.4,2c0,1.3,1.1,2.1,3,2.1C159,172.1,159.1,172,159.1,170z"/>
				<path class="st0" d="M201.4,158.2c-1,3-2,5.8-2.9,8.5c-0.9,2.5-1.8,5-2.6,7.6c-0.3,0.9-0.8,1.3-1.8,1.2c-3.9,0-3.9,0-5.2-3.7
					c-1.5-4.4-3-8.8-4.5-13.5c1.7,0,3.3,0,4.9,0c0.2,0,0.5,0.6,0.6,1c1,3.6,2,7.2,3.1,11c0.2-0.4,0.3-0.6,0.4-0.9
					c1-3.3,2.1-6.7,3-10c0.3-1.1,0.8-1.4,1.8-1.3C199.1,158.3,200.1,158.2,201.4,158.2z"/>
				<path class="st0" d="M167.5,158c0.1-1,0.2-2,0.3-3.1c0-0.7,0.3-1.1,1.1-1.1c1.2-0.1,2.3-0.3,3.6-0.5c0,1.7,0,3.2,0,5
					c0.9,0,1.7,0,2.5,0c0.7,0,1,0.3,1,1c0.1,3,0.2,3-2.8,3.1c-0.2,0-0.3,0-0.6,0.1c0,2.7,0,5.4,0,8c0,0.9,0.7,1.4,1.5,1.4
					c0.5,0,0.9,0,1.6-0.1c0,1,0.1,2,0,3c0,0.3-0.5,0.7-0.8,0.8c-1.3,0.1-2.6,0.3-3.8,0.2c-2.2-0.3-3.4-1.9-3.4-4.4
					c0-2.9,0-5.9,0-8.8c-0.8-0.1-2-0.1-2.2-0.4c-0.4-0.8-0.2-1.8-0.2-2.8C165.2,157.5,166.7,158.7,167.5,158z"/>
				<path class="st0" d="M121.3,175.6c0-1.6,0-3.1,0-4.6c0-3.9-0.1-7.9-0.2-11.8c0-0.7,0.1-1,0.8-1c0.4,0,0.8,0,1.2,0
					c2.2,0,2.2,0,2.8,1.6c1.5-0.6,2.9-1.3,4.4-1.9c0.9-0.3,1.4,0,1.3,1.1c-0.1,1.2,0,2.3,0,3.4c-1.4,0.3-2.7,0.5-3.9,0.8
					c-1.1,0.3-1.7,0.9-1.6,2.2c0.1,2.9,0,5.9,0,8.8c0,0.9-0.2,1.3-1.2,1.2C123.9,175.5,122.7,175.6,121.3,175.6z"/>
				<path class="st0" d="M182.7,175.6c-1.2,0-2.5,0.1-3.7,0c-0.3,0-0.8-0.5-0.8-0.8c-0.1-5.2-0.1-10.4,0-15.6c0-0.3,0.5-0.8,0.8-0.8
					c1-0.1,2.1-0.1,3.1,0c0.3,0,0.8,0.5,0.8,0.8c0,5.4,0,10.8,0,16.2C182.9,175.3,182.8,175.4,182.7,175.6z"/>
			</g>
			<path class="st0" d="M177.8,153.7c0.1-1.6,1.3-2.7,2.9-2.6c1.6,0.1,2.6,1.2,2.5,2.8c-0.1,1.6-1.2,2.7-2.9,2.6
				C178.8,156.4,177.8,155.3,177.8,153.7z"/>
		</g>
	</g>
</g>
</svg>
