<?xml version="1.0" encoding="utf-8"?>
<!-- Generator: Adobe Illustrator 23.0.3, SVG Export Plug-In . SVG Version: 6.00 Build 0)  -->
<svg version="1.1" id="Layer_1" xmlns="http://www.w3.org/2000/svg" xmlns:xlink="http://www.w3.org/1999/xlink" x="0px" y="0px"
	 viewBox="0 0 203.9 212.4" style="enable-background:new 0 0 203.9 212.4;" xml:space="preserve">
<style type="text/css">
	.st0{fill:#686868;}
	.st1{clip-path:url(#SVGID_2_);}
	.st2{clip-path:url(#SVGID_4_);}
	.st3{clip-path:url(#SVGID_6_);}
	.st4{clip-path:url(#SVGID_8_);}
	.st5{clip-path:url(#SVGID_10_);}
	.st6{enable-background:new    ;}
	.st7{clip-path:url(#SVGID_12_);}
	.st8{clip-path:url(#SVGID_16_);}
	.st9{clip-path:url(#SVGID_20_);}
	.st10{clip-path:url(#SVGID_22_);}
	.st11{clip-path:url(#SVGID_24_);}
	.st12{clip-path:url(#SVGID_26_);}
	.st13{clip-path:url(#SVGID_28_);}
	.st14{clip-path:url(#SVGID_30_);}
	.st15{clip-path:url(#SVGID_32_);}
	.st16{fill-rule:evenodd;clip-rule:evenodd;fill:#686868;}
</style>
<g>
	<g>
		<g>
			<defs>
				<path id="SVGID_1_" d="M134.2,97.5c-2.7,0-3.7-1.6-3.7-1.6c-0.2-0.7-0.4-11.3-0.4-21.7c-0.1-10.9,0-21.7,0.5-21.8
					c3.1-5.8,12.9-17.4,12.9-17.4c-18.3,3.6-28.2,15.6-28.2,15.6c-2.9-2.3-9-2-9-2c2.8,1.5,5.6,6,5.6,9.8v36.7c0,0-6.1,5.4-10.8,5.4
					c-2.8,0-4.5-1.5-5.5-2.7c-0.6-0.9-0.9-1.6-0.9-1.6V50.8c-0.6,0.4-1.4,0.8-2.2,0.8c-1,0-2-0.5-2.7-2c-0.5-1.2-0.9-2.7-0.9-5.2
					c0-8.3,9.5-13.9,9.5-13.9c-12,3.2-23.2,9.4-38,26.4s-12,31-12,31s4-9.8,13.8-20c4.7-4.8,8.2-6.4,10.6-6.5c2.7,0,3.9,2,3.9,3.7
					v34.5c0,3.4-2.2,4.2-4.3,4.1c-1.7,0-3.3-0.6-3.3-0.6c10.1,14.6,34.2,16.8,34.2,16.8l10.6-11.4l0.3,0.2l9.8,8.2
					c17.7-10.6,26.3-30.2,26.3-30.2C142.3,95.5,137.2,97.5,134.2,97.5"/>
			</defs>
			<use xlink:href="#SVGID_1_"  style="overflow:visible;fill:#686868;"/>
			<clipPath id="SVGID_2_">
				<use xlink:href="#SVGID_1_"  style="overflow:visible;"/>
			</clipPath>
			<g class="st1">
				<g>
					<rect x="47" y="29.5" class="st0" width="104.3" height="91.7"/>
				</g>
			</g>
		</g>
	</g>
	<g>
		<g>
			<defs>
				<path id="SVGID_3_" d="M101.9,4.3c18.8,0,36.5,7.4,49.9,20.8c13.3,13.4,20.7,31.3,20.7,50.3s-7.4,36.8-20.7,50.3
					c-13.3,13.4-31,20.8-49.9,20.8s-36.5-7.4-49.9-20.8c-13.3-13.4-20.7-31.3-20.7-50.3s7.4-36.8,20.7-50.3S83,4.3,101.9,4.3
					 M101.9,1.1c-40.8,0-73.8,33.3-73.8,74.3s33,74.3,73.7,74.3s73.7-33.3,73.7-74.3C175.6,34.3,142.6,1.1,101.9,1.1"/>
			</defs>
			<use xlink:href="#SVGID_3_"  style="overflow:visible;fill:#686868;"/>
			<clipPath id="SVGID_4_">
				<use xlink:href="#SVGID_3_"  style="overflow:visible;"/>
			</clipPath>
			<g class="st2">
				<g>
					<rect x="27.1" class="st0" width="149.6" height="150.8"/>
				</g>
			</g>
		</g>
	</g>
	<g>
		<g>
			<defs>
				<polygon id="SVGID_5_" points="64.7,211.1 48.9,211.1 48.9,196.7 64.4,196.7 64.4,199.9 53.1,199.9 53.1,202.3 63.8,202.3 
					63.8,205.4 53.1,205.4 53.1,207.8 64.7,207.8 				"/>
			</defs>
			<use xlink:href="#SVGID_5_"  style="overflow:visible;fill:#686868;"/>
			<clipPath id="SVGID_6_">
				<use xlink:href="#SVGID_5_"  style="overflow:visible;"/>
			</clipPath>
			<g class="st3">
				<g>
					<rect x="47.8" y="195.7" class="st0" width="17.8" height="16.6"/>
				</g>
			</g>
		</g>
	</g>
	<g>
		<g>
			<defs>
				<polygon id="SVGID_7_" points="86,211.1 79.7,211.1 71.3,200.3 71.2,200.3 71.2,211.1 67.1,211.1 67.1,196.7 73.5,196.7 
					81.8,207.6 81.9,207.6 81.9,196.7 86,196.7 				"/>
			</defs>
			<use xlink:href="#SVGID_7_"  style="overflow:visible;fill:#686868;"/>
			<clipPath id="SVGID_8_">
				<use xlink:href="#SVGID_7_"  style="overflow:visible;"/>
			</clipPath>
			<g class="st4">
				<g>
					<rect x="66" y="195.7" class="st0" width="21.1" height="16.6"/>
				</g>
			</g>
		</g>
	</g>
	<g>
		<g>
			<defs>
				<path id="SVGID_9_" d="M98.4,211.3c-1.3,0-2.5,0-3.5-0.1s-1.8-0.2-2.5-0.4c-0.7-0.2-1.2-0.4-1.7-0.8c-0.4-0.4-0.8-0.8-1-1.3
					c-0.3-0.5-0.4-1.2-0.4-2c-0.1-0.7-0.1-1.7-0.1-2.7v-0.4c0-1.1,0-2,0.1-2.7c0.1-0.8,0.3-1.4,0.4-2c0.3-0.5,0.5-1,1-1.2
					c0.4-0.4,1-0.6,1.7-0.8c0.7-0.2,1.5-0.3,2.5-0.4c1-0.1,2.1-0.1,3.5-0.1H99c1.2,0,2.1,0,2.9,0.1c0.8,0.1,1.6,0.2,2.1,0.3
					c0.6,0.1,1.1,0.3,1.5,0.5c0.4,0.2,0.7,0.5,0.9,0.8c0.3,0.4,0.4,0.7,0.4,1.2c0.1,0.4,0.1,1.1,0.1,1.7v0.5h-4.1v-0.2
					c0-0.4-0.1-0.6-0.2-0.8c-0.1-0.3-0.3-0.4-0.6-0.5c-0.3-0.2-0.7-0.3-1.2-0.3c-0.5-0.1-1.2-0.1-2.1-0.1h-0.4c-0.8,0-1.5,0-2,0
					s-1.1,0.1-1.4,0.2c-0.4,0.1-0.7,0.3-0.9,0.4c-0.2,0.2-0.4,0.4-0.5,0.7c-0.1,0.3-0.2,0.6-0.2,1.1s-0.1,1-0.1,1.6v0.3
					c0,0.6,0,1.2,0.1,1.5c0,0.4,0.1,0.8,0.2,1.1c0.1,0.3,0.3,0.5,0.5,0.7c0.2,0.2,0.5,0.3,0.9,0.4c0.4,0.1,0.9,0.2,1.4,0.2
					s1.2,0,2,0h0.4c0.6,0,1.2,0,1.7,0s0.9-0.1,1.2-0.1c0.4-0.1,0.6-0.1,0.8-0.2c0.2-0.1,0.4-0.2,0.4-0.4c0.1-0.2,0.2-0.3,0.2-0.5
					c0-0.2,0.1-0.4,0.1-0.6v-0.4h-5.5V203h9.6v3.2c0,0.7-0.1,1.3-0.2,1.9c-0.1,0.5-0.3,1-0.5,1.3c-0.3,0.4-0.5,0.7-1,1
					c-0.4,0.3-0.9,0.4-1.5,0.6c-0.6,0.2-1.3,0.3-2.2,0.4c-0.9,0.1-1.9,0.1-3,0.1L98.4,211.3L98.4,211.3z"/>
			</defs>
			<use xlink:href="#SVGID_9_"  style="overflow:visible;fill:#686868;"/>
			<clipPath id="SVGID_10_">
				<use xlink:href="#SVGID_9_"  style="overflow:visible;"/>
			</clipPath>
			<g class="st5">
				<g>
					<rect x="88.2" y="195.6" class="st0" width="20.2" height="16.8"/>
				</g>
			</g>
		</g>
	</g>
	<g>
		<g>
			<g>
				<g>
					<g class="st6">
						<g>
							<g>
								<g>
									<g>
										<defs>
											<polygon id="SVGID_11_" points="136.5,211.1 130.2,211.1 121.9,200.4 121.8,200.4 121.8,211.1 117.7,211.1 117.7,196.8 
												124.1,196.8 132.3,207.6 132.4,207.6 132.4,196.8 136.5,196.8 											"/>
										</defs>
										<use xlink:href="#SVGID_11_"  style="overflow:visible;fill:#686868;"/>
										<clipPath id="SVGID_12_">
											<use xlink:href="#SVGID_11_"  style="overflow:visible;"/>
										</clipPath>
										<g class="st7">
											<g>
												<defs>
													<rect id="SVGID_13_" x="1" y="163.3" width="202" height="48"/>
												</defs>
												<use xlink:href="#SVGID_13_"  style="overflow:visible;fill:#686868;"/>
												<clipPath id="SVGID_14_">
													<use xlink:href="#SVGID_13_"  style="overflow:visible;"/>
												</clipPath>
											</g>
										</g>
									</g>
								</g>
							</g>
							<g>
								<g>
									<g>
										<defs>
											<polygon id="SVGID_15_" points="155.5,211.1 139.9,211.1 139.9,196.8 155.2,196.8 155.2,199.9 144.1,199.9 144.1,202.4 
												154.7,202.4 154.7,205.4 144.1,205.4 144.1,207.9 155.5,207.9 											"/>
										</defs>
										<use xlink:href="#SVGID_15_"  style="overflow:visible;fill:#686868;"/>
										<clipPath id="SVGID_16_">
											<use xlink:href="#SVGID_15_"  style="overflow:visible;"/>
										</clipPath>
										<g class="st8">
											<g>
												<defs>
													<rect id="SVGID_17_" x="1" y="163.3" width="202" height="48"/>
												</defs>
												<use xlink:href="#SVGID_17_"  style="overflow:visible;fill:#686868;"/>
												<clipPath id="SVGID_18_">
													<use xlink:href="#SVGID_17_"  style="overflow:visible;"/>
												</clipPath>
											</g>
										</g>
									</g>
								</g>
							</g>
						</g>
					</g>
				</g>
			</g>
		</g>
	</g>
	<g>
		<g>
			<defs>
				<path id="SVGID_19_" d="M16.1,188.9c-2,0-3.8-0.1-5.4-0.2c-1.5-0.1-2.8-0.3-4-0.5c-1.2-0.3-2-0.6-2.7-1.1s-1.3-1.1-1.8-1.7
					c-0.4-0.7-0.7-1.5-0.9-2.5s-0.3-2-0.3-3.3v-16.3h7.5v13.9c0,0.9,0,1.6,0.1,2.2s0.2,1.2,0.4,1.6s0.4,0.8,0.8,1.1
					c0.4,0.3,0.8,0.4,1.4,0.6c0.5,0.2,1.2,0.3,2.1,0.3c0.8,0.1,1.9,0.1,3,0.1h0.6c1.2,0,2.1,0,3-0.1c0.8-0.1,1.5-0.2,2.1-0.3
					c0.5-0.2,1.1-0.4,1.4-0.6c0.4-0.3,0.6-0.6,0.8-1.1c0.2-0.4,0.3-1,0.4-1.6c0.1-0.6,0.1-1.3,0.1-2.2v-13.9h7.5v16.3
					c0,1.2-0.1,2.3-0.3,3.3c-0.2,1-0.4,1.8-0.9,2.5c-0.4,0.7-1,1.2-1.8,1.7c-0.7,0.4-1.7,0.8-2.7,1.1c-1.2,0.3-2.5,0.4-4,0.5
					c-1.6,0.1-3.4,0.2-5.4,0.2H16.1z"/>
			</defs>
			<use xlink:href="#SVGID_19_"  style="overflow:visible;fill:#686868;"/>
			<clipPath id="SVGID_20_">
				<use xlink:href="#SVGID_19_"  style="overflow:visible;"/>
			</clipPath>
			<g class="st9">
				<g>
					<rect y="162.3" class="st0" width="33.2" height="27.7"/>
				</g>
			</g>
		</g>
	</g>
	<g>
		<g>
			<defs>
				<polygon id="SVGID_21_" points="70.3,188.7 59.3,188.7 44.6,169.8 44.4,169.8 44.4,188.7 37.2,188.7 37.2,163.4 48.4,163.4 
					63,182.3 63.1,182.3 63.1,163.4 70.3,163.4 				"/>
			</defs>
			<use xlink:href="#SVGID_21_"  style="overflow:visible;fill:#686868;"/>
			<clipPath id="SVGID_22_">
				<use xlink:href="#SVGID_21_"  style="overflow:visible;"/>
			</clipPath>
			<g class="st10">
				<g>
					<rect x="36.1" y="162.3" class="st0" width="35.3" height="27.4"/>
				</g>
			</g>
		</g>
	</g>
	<g>
		<g>
			<defs>
				<path id="SVGID_23_" d="M105.5,188.7h-7.4v-2c0-0.7,0-1.3-0.1-2c-0.1-0.5-0.2-1-0.4-1.3c-0.2-0.4-0.4-0.7-0.8-0.9
					c-0.4-0.3-0.8-0.4-1.4-0.5c-0.5-0.1-1.2-0.2-2.1-0.3c-0.8,0-1.9-0.1-3-0.1h-7.5v7h-7.4v-25.3h19.7c2,0,3.7,0.1,5.1,0.4
					c1.3,0.3,2.4,0.7,3.1,1.2c0.8,0.6,1.3,1.4,1.6,2.4c0.3,1,0.4,2.2,0.4,3.6v0.9c0,1-0.1,1.9-0.3,2.6c-0.2,0.7-0.4,1.4-0.8,2
					c-0.4,0.5-0.8,1-1.3,1.3c-0.5,0.4-1.2,0.6-2,0.8v0.2c0.9,0.2,1.6,0.4,2.2,0.5c0.5,0.3,1,0.5,1.3,1c0.4,0.4,0.5,1.1,0.6,1.8
					c0.1,0.7,0.2,1.6,0.2,2.7v4H105.5z M92.2,176.2c1.2,0,2.3,0,3.1-0.1c0.8-0.1,1.3-0.3,1.8-0.5c0.4-0.3,0.6-0.6,0.8-1.1
					c0.1-0.4,0.2-1.1,0.2-1.8v-0.4c0-0.7-0.1-1.3-0.2-1.8c-0.1-0.4-0.4-0.8-0.8-1c-0.4-0.3-1-0.4-1.8-0.4c-0.8-0.1-1.8-0.1-3-0.1
					h-9.3v7.2L92.2,176.2L92.2,176.2z"/>
			</defs>
			<use xlink:href="#SVGID_23_"  style="overflow:visible;fill:#686868;"/>
			<clipPath id="SVGID_24_">
				<use xlink:href="#SVGID_23_"  style="overflow:visible;"/>
			</clipPath>
			<g class="st11">
				<g>
					<rect x="74.5" y="162.3" class="st0" width="32" height="27.4"/>
				</g>
			</g>
		</g>
	</g>
	<g>
		<g>
			<defs>
				<polygon id="SVGID_25_" points="137.8,188.7 110.3,188.7 110.3,163.4 137.4,163.4 137.4,169 117.7,169 117.7,173.2 136.3,173.2 
					136.3,178.6 117.7,178.6 117.7,182.9 137.8,182.9 				"/>
			</defs>
			<use xlink:href="#SVGID_25_"  style="overflow:visible;fill:#686868;"/>
			<clipPath id="SVGID_26_">
				<use xlink:href="#SVGID_25_"  style="overflow:visible;"/>
			</clipPath>
			<g class="st12">
				<g>
					<rect x="109.3" y="162.3" class="st0" width="29.6" height="27.4"/>
				</g>
			</g>
		</g>
	</g>
	<g>
		<g>
			<defs>
				<path id="SVGID_27_" d="M175.8,188.7h-8.1l-2.3-4.5h-15.8l-2.3,4.5h-8l13.6-25.3h9.1L175.8,188.7z M162.8,178.8l-5.1-10.2h-0.2
					l-5.1,10.2H162.8z"/>
			</defs>
			<use xlink:href="#SVGID_27_"  style="overflow:visible;fill:#686868;"/>
			<clipPath id="SVGID_28_">
				<use xlink:href="#SVGID_27_"  style="overflow:visible;"/>
			</clipPath>
			<g class="st13">
				<g>
					<rect x="138.4" y="162.3" class="st0" width="38.5" height="27.4"/>
				</g>
			</g>
		</g>
	</g>
	<g>
		<g>
			<defs>
				<polygon id="SVGID_29_" points="203,188.7 178.6,188.7 178.6,163.4 186,163.4 186,182.8 203,182.8 				"/>
			</defs>
			<use xlink:href="#SVGID_29_"  style="overflow:visible;fill:#686868;"/>
			<clipPath id="SVGID_30_">
				<use xlink:href="#SVGID_29_"  style="overflow:visible;"/>
			</clipPath>
			<g class="st14">
				<g>
					<rect x="177.5" y="162.3" class="st0" width="26.4" height="27.4"/>
				</g>
			</g>
		</g>
	</g>
	<g>
		<g>
			<defs>
				<rect id="SVGID_31_" x="110.3" y="196.8" width="4.3" height="14.4"/>
			</defs>
			<use xlink:href="#SVGID_31_"  style="overflow:visible;fill:#686868;"/>
			<clipPath id="SVGID_32_">
				<use xlink:href="#SVGID_31_"  style="overflow:visible;"/>
			</clipPath>
			<g class="st15">
				<g>
					<rect x="109.2" y="195.8" class="st0" width="6.3" height="16.4"/>
				</g>
			</g>
		</g>
	</g>
</g>
</svg>
