<?xml version="1.0" encoding="utf-8"?>
<!-- Generator: Adobe Illustrator 23.0.3, SVG Export Plug-In . SVG Version: 6.00 Build 0)  -->
<svg version="1.1" id="Layer_1" xmlns="http://www.w3.org/2000/svg" xmlns:xlink="http://www.w3.org/1999/xlink" x="0px" y="0px"
	 viewBox="0 0 143.6 188.5" style="enable-background:new 0 0 143.6 188.5;" xml:space="preserve">
<style type="text/css">
	.st0{fill:#686868;}
	.st1{clip-path:url(#SVGID_2_);}
	.st2{clip-path:url(#SVGID_4_);}
	.st3{clip-path:url(#SVGID_6_);}
	.st4{clip-path:url(#SVGID_8_);}
	.st5{clip-path:url(#SVGID_10_);}
	.st6{enable-background:new    ;}
	.st7{clip-path:url(#SVGID_12_);}
	.st8{clip-path:url(#SVGID_16_);}
	.st9{clip-path:url(#SVGID_20_);}
	.st10{clip-path:url(#SVGID_22_);}
	.st11{clip-path:url(#SVGID_24_);}
	.st12{clip-path:url(#SVGID_26_);}
	.st13{clip-path:url(#SVGID_28_);}
	.st14{clip-path:url(#SVGID_30_);}
	.st15{clip-path:url(#SVGID_32_);}
	.st16{fill-rule:evenodd;clip-rule:evenodd;fill:#686868;}
</style>
<g>
	<g>
		<path class="st0" d="M100.5,4h43.1L86,110.4c0,0-9.7-28.2-13.9-38.2"/>
		<g>
			<path class="st0" d="M111.1,135.5h32.5V4C143.6,72.7,114.7,135.5,111.1,135.5z"/>
		</g>
		<path class="st0" d="M86,110.4H59.2L0,4c10.5-1.3,31.5-3.1,41.8-4L86,110.4z"/>
		<path class="st0" d="M34.3,68.4C25.4,103.5,0,136.6,0,136.5c29.5,0,35.8-4.3,35.8-6.5c0-1.3,0-40.4,0-59
			C35.3,70.2,34.8,69.3,34.3,68.4z"/>
		<path class="st0" d="M0,4v132.6c16.1-26.7,25.5-44.1,33.9-69C13.4,31.3,0,4,0,4z"/>
		<polyline class="st0" points="108.9,130.3 111.1,135.5 111.1,66.5 108.9,70.2 		"/>
		<path class="st0" d="M111,66.6v68.7l0.1,0.2c2.3,0,32.5-74.4,32.5-131.6C143.6,4,125.2,42.4,111,66.6z"/>
	</g>
	<g>
		<path class="st0" d="M34.7,184c0.4-0.9,6.4-21.1,6.8-22.3c0.1-0.4,0.2-0.9,0.4-1.4c2.2,0,4.3,0,6.5,0c0,9.4,0,18.7,0,28.1
			c-1.6,0-3.2,0-4.9,0c0-6.3,0-12.7,0-19.1c-0.1,0-0.1,0-0.2,0c-1.9,6.4-3.9,12.8-5.8,19.2c-1.8,0-3.5,0-5.3,0
			c-0.1,0-6.1-19.3-6.4-20c0,6.7,0,13.3,0,20c-1.6,0-3.1,0-4.7,0c0-9.4,0-18.7,0-28.1c2.3,0,4.5,0,6.9,0
			C28.1,160.7,34.6,183.5,34.7,184z"/>
		<path class="st0" d="M60.4,181.1c-0.7,2.4-1.4,4.8-2.1,7.3c-1.7,0-3.4,0-5.2,0c0.5-1.7,7.7-25.7,8.4-27.8c0.1-0.3,0.3-0.4,0.6-0.4
			c2.2,0,4.5,0,6.8,0c0.6,2,8.8,27.7,8.9,28.2c-1.8,0-3.5,0-5.3,0c-0.9-2.4-1.7-4.9-2.6-7.3C66.8,181.1,63.6,181.1,60.4,181.1z
			 M61.6,176.9c2.4,0,4.8,0,7.2,0c-1.2-4.2-2.3-8.3-3.5-12.4c-0.1,0-0.1,0-0.2,0C63.9,168.6,62.8,172.7,61.6,176.9z"/>
		<path class="st0" d="M105.1,181.1c-0.7,2.4-1.4,4.8-2.1,7.3c-1.7,0-3.4,0-5.2,0c0.5-1.7,7.7-25.7,8.4-27.8
			c0.1-0.3,0.3-0.4,0.6-0.4c2.2,0,4.5,0,6.8,0c0.6,2,8.8,27.7,8.9,28.2c-1.8,0-3.5,0-5.3,0c-0.9-2.4-1.7-4.9-2.6-7.3
			C111.5,181.1,108.4,181.1,105.1,181.1z M106.3,176.9c2.4,0,4.8,0,7.2,0c-1.2-4.2-2.3-8.3-3.5-12.4c-0.1,0-0.1,0-0.2,0
			C108.7,168.6,107.5,172.7,106.3,176.9z"/>
		<path class="st0" d="M90.5,188.4c-1.8,0-3.5,0-5.3,0c0-0.3,0-0.5,0-0.7c0-3.4,0-10.8-0.1-11.1c-0.4-0.7-8.7-16-9-16.3
			c0.3,0,0.5-0.1,0.7-0.1c1.4,0,2.8,0,4.3,0c0.6,0,0.9,0.3,1.1,0.7c0.8,1.5,5.3,10.6,5.6,11.1c0.1,0.2,0.3,0.3,0.4,0.5
			c0.1-0.2,0.3-0.4,0.4-0.6c0.4-0.9,4.9-10.2,5.5-11.4c0.1-0.2,0.3-0.4,0.5-0.4c1.6,0,3.2,0,5,0c-0.4,0.8-0.7,1.5-1.1,2.1
			c-0.5,0.9-6.3,11.5-6.8,12.5c-0.4,0.7-0.8,1.4-1.2,2.2c-0.1,0.1,0,0.3,0,0.5C90.5,180.9,90.5,188.2,90.5,188.4z"/>
	</g>
	<g>
		<path class="st0" d="M129.5,165.8c-2.8,0-5.1-2.3-5.1-5.1s2.3-5.1,5.1-5.1c2.8,0,5.1,2.3,5.1,5.1S132.3,165.8,129.5,165.8z
			 M129.5,156.5c-2.3,0-4.2,1.9-4.2,4.2c0,2.3,1.9,4.2,4.2,4.2c2.3,0,4.2-1.9,4.2-4.2C133.7,158.4,131.8,156.5,129.5,156.5z"/>
	</g>
	<g>
		<path class="st0" d="M129.5,161.6h-0.6v1h-1.1v-3.8h1.7c0.3,0,0.6,0.1,0.9,0.2c0.3,0.1,0.4,0.3,0.6,0.5c0.1,0.2,0.2,0.5,0.2,0.7
			c0,0.3-0.1,0.5-0.2,0.7c-0.1,0.2-0.3,0.4-0.5,0.5l0.8,1.2h-1.1L129.5,161.6z M130,159.8c-0.1-0.1-0.3-0.1-0.5-0.1h-0.6v1.1h0.6
			c0.2,0,0.4,0,0.5-0.1c0.1-0.1,0.2-0.2,0.2-0.4C130.2,160,130.1,159.9,130,159.8z"/>
	</g>
</g>
</svg>
